  0
SECTION
  2
HEADER
  9
$ACADVER
  1
AC1009
  9
$INSBASE
 10
0
 20
0
 30
0
  9
$EXTMIN
 10
0
 20
0
  9
$EXTMAX
 10
11890
 20
8410
  9
$LIMMIN
 10
0
 20
0
  9
$LIMMAX
 10
11890
 20
8410
  9
$LTSCALE
 40
10
  0
ENDSEC
  0
SECTION
  2
TABLES
  0
TABLE
  2
LTYPE
 70
     9
  0
LTYPE
  2
CONTINUOUS
 70
    64
  3
実線
 72
    65
 73
     0
 40
0.0
  0
LTYPE
  2
DASHED1
 70
    64
  3
--  --  --  --  --  --  --  --  
 72
    65
 73
     2
 40
2.5
 49
1.25
 49
-1.25
  0
LTYPE
  2
DASHED2
 70
    64
  3
----    ----    ----    ----    
 72
    65
 73
     2
 40
5.0
 49
2.5
 49
-2.5
  0
LTYPE
  2
DASHED3
 70
    64
  3
------  ------  ------  ------  
 72
    65
 73
     2
 40
5.0
 49
3.75
 49
-1.25
  0
LTYPE
  2
CENTER1
 70
    64
  3
----- - ----- - ----- - ----- - 
 72
    65
 73
     4
 40
10.0
 49
6.25
 49
-1.25
 49
1.25
 49
-1.25
  0
LTYPE
  2
CENTER2
 70
    64
  3
----------  --  ----------  --  
 72
    65
 73
     4
 40
20.0
 49
12.5
 49
-2.5
 49
2.5
 49
-2.5
  0
LTYPE
  2
PHANTOM1
 70
    64
  3
--- - - --- - - --- - - --- - - 
 72
    65
 73
     6
 40
10.0
 49
3.25
 49
-1.25
 49
1.25
 49
-1.25
 49
1.25
 49
-1.25
  0
LTYPE
  2
PHANTOM2
 70
    64
  3
--------  -  -  --------  -  -  
 72
    65
 73
     6
 40
20.0
 49
10.0
 49
-2.5
 49
1.25
 49
-2.5
 49
1.25
 49
-2.5
  0
LTYPE
  2
DOT
 70
    64
  3
-   -   -   -   -   -   -   -   
 72
    65
 73
     2
 40
2.5
 49
0.625
 49
-1.875
  0
LTYPE
  2
DUMMY
 70
    64
  3
ダミー
 72
    65
 73
     0
 40
0.0
  0
LTYPE
  2
RAND1
 70
    64
  3
ランダム線1
 72
    65
 73
     4
 40
10.0
 49
1.0
 49
-2.0
 49
3.0
 49
-4.0
  0
LTYPE
  2
RAND2
 70
    64
  3
ランダム線2
 72
    65
 73
     4
 40
14.0
 49
2.0
 49
-3.0
 49
4.0
 49
-5.0
  0
LTYPE
  2
RAND3
 70
    64
  3
ランダム線3
 72
    65
 73
     4
 40
18.0
 49
3.0
 49
-4.0
 49
5.0
 49
-6.0
  0
LTYPE
  2
RAND4
 70
    64
  3
ランダム線4
 72
    65
 73
     4
 40
22.0
 49
4.0
 49
-5.0
 49
6.0
 49
-7.0
  0
LTYPE
  2
RAND5
 70
    64
  3
ランダム線5
 72
    65
 73
     4
 40
26.0
 49
5.0
 49
-6.0
 49
7.0
 49
-8.0
  0
LTYPE
  2
LONG1
 70
    64
  3
----------  --  ----------  --  
 72
    65
 73
     4
 40
40.0
 49
32.5
 49
-2.5
 49
2.5
 49
-2.5
  0
LTYPE
  2
LONG2
 70
    64
  3
--------  -  -  --------  -  -  
 72
    65
 73
     6
 40
40.0
 49
30.0
 49
-2.5
 49
1.25
 49
-2.5
 49
1.25
 49
-2.5
  0
LTYPE
  2
LONG3
 70
    64
  3
+++++++++++++++..+++++++++++++++
 72
    65
 73
     2
 40
40.0
 49
37.5
 49
-2.5
  0
LTYPE
  2
LONG4
 70
    64
  3
+++++++++++++++..+++++++++++++++
 72
    65
 73
     2
 40
80.0
 49
75.0
 49
-5.0
  0
LTYPE
  2
LONG5
 70
    64
  3
----------  --  ----------  --  
 72
    65
 73
     4
 40
60.0
 49
37.5
 49
-7.5
 49
7.5
 49
-7.5
  0
LTYPE
  2
dashed
 70
   64
  3
-------   -------------   ------
 72
   65
 73
    2
 40
7.5
 49
6
 49
-1.5
  0
LTYPE
  2
dashed_spaced
 70
   64
  3
----        --------        ----
 72
   65
 73
    2
 40
12
 49
6
 49
-6
  0
LTYPE
  2
long_dashed_dotted
 70
   64
  3
------------- --- --------------
 72
   65
 73
    4
 40
15.25
 49
12
 49
-1.5
 49
0.25
 49
-1.5
  0
LTYPE
  2
long_dashed_double-dotted
 70
   64
  3
----------- --- --- ------------
 72
   65
 73
    6
 40
17
 49
12
 49
-1.5
 49
0.25
 49
-1.5
 49
0.25
 49
-1.5
  0
LTYPE
  2
long_dashed_triplicate-dotted
 70
   64
  3
--------- --- --- --- ----------
 72
   65
 73
    8
 40
18.75
 49
12
 49
-1.5
 49
0.25
 49
-1.5
 49
0.25
 49
-1.5
 49
0.25
 49
-1.5
  0
LTYPE
  2
dotted
 70
   64
  3
   -       -       -       -    
 72
   65
 73
    2
 40
1.75
 49
0.25
 49
-1.5
  0
LTYPE
  2
chain
 70
   64
  3
-------------- -- --------------
 72
   65
 73
    4
 40
18.5
 49
12
 49
-1.5
 49
3.5
 49
-1.5
  0
LTYPE
  2
chain_double_dash
 70
   64
  3
------------ -- -- -------------
 72
   65
 73
    6
 40
23.5
 49
12
 49
-1.5
 49
3.5
 49
-1.5
 49
3.5
 49
-1.5
  0
LTYPE
  2
dashed_dotted
 70
   64
  3
-----------     -     ----------
 72
   65
 73
    4
 40
9.25
 49
6
 49
-1.5
 49
0.25
 49
-1.5
  0
LTYPE
  2
double-dashed_dotted
 70
   64
  3
------   -----------   -   -----
 72
   65
 73
    6
 40
16.75
 49
6
 49
-1.5
 49
6
 49
-1.5
 49
0.25
 49
-1.5
  0
LTYPE
  2
dashed_double-dotted
 70
   64
  3
---------    -    -    ---------
 72
   65
 73
    6
 40
11
 49
6
 49
-1.5
 49
0.25
 49
-1.5
 49
0.25
 49
-1.5
  0
LTYPE
  2
double-dashed_double-dotted
 70
   64
  3
-----   ---------   -   -   ----
 72
   65
 73
    8
 40
18.5
 49
6
 49
-1.5
 49
6
 49
-1.5
 49
0.25
 49
-1.5
 49
0.25
 49
-1.5
  0
LTYPE
  2
dashed_triplicate-dotted
 70
   64
  3
-------    -    -    -    ------
 72
   65
 73
    8
 40
12.75
 49
6
 49
-1.5
 49
0.25
 49
-1.5
 49
0.25
 49
-1.5
 49
0.25
 49
-1.5
  0
LTYPE
  2
double-dashed_triplicate-dotted
 70
   64
  3
-----  ---------  -  -  -  -----
 72
   65
 73
   10
 40
20.25
 49
6
 49
-1.5
 49
6
 49
-1.5
 49
0.25
 49
-1.5
 49
0.25
 49
-1.5
 49
0.25
 49
-1.5
  0
LTYPE
  2
undefined
 70
   64
  3
--------------------------------
 72
   65
 73
    0
 40
0
  0
ENDTAB
  0
TABLE
  2
STYLE
  5
3
100
AcDbSymbolTable
 70
     1
  0
STYLE
  5
10
100
AcDbSymbolTableRecord
100
AcDbTextStyleTableRecord
  2
STANDARD
 70
     0
 40
0.0
 41
1.0
 50
0.0
 71
     0
 42
0.2
  3
txt
  4
bigfont.shx
  0
STYLE
  5
26
100
AcDbSymbolTableRecord
100
AcDbTextStyleTableRecord
  2
TATEGAKI
 70
    68
 40
0.0
 41
1.0
 50
0.0
 71
     0
 42
1.0
  3
txt
  4
bigfont.shx
  0
ENDTAB
  0
TABLE
  2
LAYER
 70
    3
  0
LAYER
  2
_0-1_
 70
   64
 62
    7
  6
CONTINUOUS
  0
LAYER
  2
_0-2_
 70
   64
 62
    7
  6
CONTINUOUS
  0
LAYER
  2
ADD_LINE
 70
   64
 62
    7
  6
CONTINUOUS
  0
ENDTAB
  0
ENDSEC
  0
SECTION
  2
BLOCKS
  0
ENDSEC
  0
SECTION
  2
ENTITIES
  0
CIRCLE
  8
_0-1_
  6
CONTINUOUS
 62
    7
 10
5252.8406086001405
 20
4369.6022154844595
 40
500
  0
CIRCLE
  8
_0-1_
  6
CONTINUOUS
 62
    7
 10
5252.8406086001405
 20
4769.6022154844604
 40
50
  0
LINE
  8
_0-2_
  6
CONTINUOUS
 62
    7
 10
5429.4031086001405
 20
4671.8036112352902
 11
5771.6668394511498
 21
4474.2029398727291
  0
ARC
  8
_0-2_
  6
CONTINUOUS
 62
    7
 10
5252.8406086001405
 20
4369.6022154844595
 40
300
 50
301.38816646434856
 51
58.611833535651478
  0
LINE
  8
_0-2_
  6
CONTINUOUS
 62
    7
 10
5429.4031086001396
 20
4067.4008197336307
 11
5771.6651901455662
 21
4265.0059246472838
  0
ARC
  8
_0-2_
  6
CONTINUOUS
 62
    7
 10
6052.8406086001432
 20
4369.6022154844577
 40
300.00000000000324
 50
149.99999999999991
 51
159.59406822686029
  0
ARC
  8
_0-2_
  6
CONTINUOUS
 62
    7
 10
6052.8406086001196
 20
4369.6022154844504
 40
299.99999999997885
 50
200.4050283353057
 51
210.00000000000031
  0
LINE
  8
_0-2_
  6
CONTINUOUS
 62
    7
 10
5479.4077728208058
 20
3980.790200688014
 11
5821.6668394511498
 21
4178.3989507177475
  0
ARC
  8
_0-2_
  6
CONTINUOUS
 62
    7
 10
5652.8406086001405
 20
3676.7818924569092
 40
300
 50
1.3881664643485692
 51
118.61183353565146
  0
LINE
  8
_0-2_
  6
CONTINUOUS
 62
    7
 10
6002.8359443794716
 20
3678.5888049371833
 11
6002.8359443794725
 21
4073.7990147644909
  0
ARC
  8
_0-2_
  6
CONTINUOUS
 62
    7
 10
6052.8406086001432
 20
4369.6022154844604
 40
300.00000000000324
 50
209.99999999999991
 51
219.59406822686029
  0
ARC
  8
_0-2_
  6
CONTINUOUS
 62
    7
 10
6052.8406086001378
 20
4369.6022154844386
 40
299.99999999997885
 50
260.4050283353057
 51
270.00000000000034
  0
LINE
  8
_0-2_
  6
CONTINUOUS
 62
    7
 10
6102.8452728208058
 20
3678.5888049371842
 11
6102.8406086001405
 21
4073.7982263294793
  0
ARC
  8
_0-2_
  6
CONTINUOUS
 62
    7
 10
6452.8406086001405
 20
3676.7818924569092
 40
300
 50
61.388166464348565
 51
178.61183353565147
  0
LINE
  8
_0-2_
  6
CONTINUOUS
 62
    7
 10
6626.2734443794743
 20
3980.7902006880131
 11
6284.0113628340459
 21
4178.3953056016671
  0
ARC
  8
_0-2_
  6
CONTINUOUS
 62
    7
 10
6052.8406086001405
 20
4369.6022154844632
 40
300.00000000000324
 50
269.99999999999989
 51
279.59406822686026
  0
ARC
  8
_0-2_
  6
CONTINUOUS
 62
    7
 10
6052.8406086001578
 20
4369.6022154844477
 40
299.99999999997885
 50
320.4050283353057
 51
330.00000000000034
  0
LINE
  8
_0-2_
  6
CONTINUOUS
 62
    7
 10
6676.2781086001405
 20
4067.4008197336298
 11
6334.0143777491303
 21
4265.0014910961918
  0
ARC
  8
_0-2_
  6
CONTINUOUS
 62
    7
 10
6852.8406086001405
 20
4369.6022154844595
 40
300
 50
121.38816646434857
 51
238.61183353565147
  0
LINE
  8
_0-2_
  6
CONTINUOUS
 62
    7
 10
6676.2781086001405
 20
4671.8036112352902
 11
6334.016027054714
 21
4474.1985063216362
  0
ARC
  8
_0-2_
  6
CONTINUOUS
 62
    7
 10
6052.8406086001378
 20
4369.6022154844622
 40
300.00000000000324
 50
329.99999999999989
 51
339.59406822686026
  0
ARC
  8
_0-2_
  6
CONTINUOUS
 62
    7
 10
6052.8406086001587
 20
4369.6022154844695
 40
299.99999999997885
 50
20.40502833530569
 51
30.000000000000323
  0
LINE
  8
_0-2_
  6
CONTINUOUS
 62
    7
 10
6626.2734443794743
 20
4758.414230280905
 11
6284.0143777491303
 21
4560.8054802511724
  0
ARC
  8
_0-2_
  6
CONTINUOUS
 62
    7
 10
6452.8406086001405
 20
5062.4225385120108
 40
300
 50
181.38816646434856
 51
298.61183353565144
  0
LINE
  8
_0-2_
  6
CONTINUOUS
 62
    7
 10
6102.8452728208067
 20
5060.6156260317357
 11
6102.8452728208067
 21
4665.4054162044295
  0
ARC
  8
_0-2_
  6
CONTINUOUS
 62
    7
 10
6052.8406086001369
 20
4369.6022154844595
 40
300.00000000000324
 50
29.99999999999989
 51
39.594068226860273
  0
ARC
  8
_0-2_
  6
CONTINUOUS
 62
    7
 10
6052.8406086001414
 20
4369.6022154844813
 40
299.99999999997885
 50
80.405028335305701
 51
90.000000000000284
  0
LINE
  8
_0-2_
  6
CONTINUOUS
 62
    7
 10
6002.8359443794743
 20
5060.6156260317357
 11
6002.8406086001405
 21
4665.4062046394401
  0
ARC
  8
_0-2_
  6
CONTINUOUS
 62
    7
 10
5652.8406086001405
 20
5062.4225385120108
 40
300
 50
241.38816646434859
 51
358.6118335356515
  0
LINE
  8
_0-2_
  6
CONTINUOUS
 62
    7
 10
5479.4077728208067
 20
4758.4142302809059
 11
5821.6698543662324
 21
4560.8091253672537
  0
ARC
  8
_0-2_
  6
CONTINUOUS
 62
    7
 10
6052.8406086001396
 20
4369.6022154844568
 40
300.00000000000324
 50
89.999999999999929
 51
99.594068226860301
  0
ARC
  8
_0-2_
  6
CONTINUOUS
 62
    7
 10
6052.8406086001223
 20
4369.6022154844723
 40
299.99999999997885
 50
140.4050283353057
 51
150.00000000000034
  0
CIRCLE
  8
_0-1_
  6
CONTINUOUS
 62
    7
 10
5252.8406086001405
 20
4369.6022154844595
 40
50
  0
ARC
  8
_0-1_
  6
CONTINUOUS
 62
    7
 10
5252.8406086001405
 20
4781.3669213668127
 40
361.76470588235247
 50
224.93473079487595
 51
315.06526920512408
  0
ARC
  8
_0-1_
  6
CONTINUOUS
 62
    7
 10
5252.8406086001405
 20
4369.6022154844595
 40
300
 50
148.61183353565144
 51
31.388166464348501
  0
ARC
  8
_0-2_
  6
CONTINUOUS
 62
    7
 10
6052.8406086001405
 20
4369.6022154844595
 40
692.82032302755078
 50
81.693720494333348
 51
85.861048728242565
  0
ARC
  8
_0-2_
  6
CONTINUOUS
 62
    7
 10
6052.8406086001405
 20
4369.6022154844595
 40
692.82032302755078
 50
94.138951271757307
 51
98.306279505666595
  0
ARC
  8
_0-2_
  6
CONTINUOUS
 62
    7
 10
6052.8406086001405
 20
4369.6022154844595
 40
692.82032302755078
 50
201.69372049433335
 51
205.86104872824262
  0
ARC
  8
_0-2_
  6
CONTINUOUS
 62
    7
 10
6052.8406086001405
 20
4369.6022154844595
 40
692.82032302755078
 50
214.13895127175735
 51
218.30627950566662
  0
ARC
  8
_0-2_
  6
CONTINUOUS
 62
    7
 10
6052.8406086001405
 20
4369.6022154844595
 40
692.82032302755078
 50
261.69372049433338
 51
265.86104872824257
  0
ARC
  8
_0-2_
  6
CONTINUOUS
 62
    7
 10
6052.8406086001405
 20
4369.6022154844595
 40
692.82032302755078
 50
274.13895127175732
 51
278.30627950566662
  0
ARC
  8
_0-2_
  6
CONTINUOUS
 62
    7
 10
6052.8406086001405
 20
4369.6022154844595
 40
692.82032302755078
 50
321.69372049433343
 51
325.86104872824262
  0
ARC
  8
_0-2_
  6
CONTINUOUS
 62
    7
 10
6052.8406086001405
 20
4369.6022154844595
 40
692.82032302755078
 50
334.13895127175732
 51
338.30627950566662
  0
ARC
  8
_0-2_
  6
CONTINUOUS
 62
    7
 10
6052.8406086001405
 20
4369.6022154844595
 40
692.82032302755078
 50
21.69372049433337
 51
25.86104872824259
  0
ARC
  8
_0-2_
  6
CONTINUOUS
 62
    7
 10
6052.8406086001405
 20
4369.6022154844595
 40
692.82032302755078
 50
34.138951271757264
 51
38.306279505666581
  0
ARC
  8
_0-2_
  6
CONTINUOUS
 62
    7
 10
6052.8406086001405
 20
4369.6022154844595
 40
692.82032302755078
 50
154.13895127175732
 51
158.30627950566665
  0
ARC
  8
_0-2_
  6
CONTINUOUS
 62
    7
 10
6052.8406086001405
 20
4369.6022154844595
 40
692.82032302755078
 50
141.69372049433341
 51
145.86104872824262
  0
ENDSEC
  0
EOF
